# xmcd CD database file
# Copyright (C) 1993-1998 Ti Kan
# 
# Track frame offsets:
#     182
#     16285
#     31377
#     50530
#     67670
#     80487
#     95080
#     108452
#     128307
#     156657
#     173877
#     197810
#     213210
#     224665
# 
# Disc length: 3188 seconds
# 
# Revision: 1
# Processed by: cddbd v1.4b41PL1 Copyright (c) Steve Scherf et al.
# Submitted via: DiscPlay 4.0.4
# 
DISCID=c20c720e
DTITLE=Band Of Oz - Let It Roll
DYEAR=1900
DGENRE=
TTITLE0=Maybe Someday Baby
TTITLE1=Fool For Your Love
TTITLE2=Shama Lama Ding Dong
TTITLE3=Keep On Sittin' On It All The Time
TTITLE4=Some Kind Of Wonderful
TTITLE5=Easy Comin' Out
TTITLE6=Is A Bluebird Blue
TTITLE7=Baby What You Want Me To Do
TTITLE8=Love Song Medley
TTITLE9=Johnny B. Goode
TTITLE10=First Impressions
TTITLE11=In A Letter
TTITLE12=Love Sickness
TTITLE13=Ocean Boulevard
EXTD=
EXTT0=
EXTT1=
EXTT2=
EXTT3=
EXTT4=
EXTT5=
EXTT6=
EXTT7=
EXTT8=
EXTT9=
EXTT10=
EXTT11=
EXTT12=
EXTT13=
PLAYORDER=
